<svg xmlns="http://www.w3.org/2000/svg" xmlns:xlink="http://www.w3.org/1999/xlink" width="500" zoomAndPan="magnify" viewBox="0 0 375 374.999991" height="500" preserveAspectRatio="xMidYMid meet" version="1.0"><defs><clipPath id="793ac58b35"><path d="M 112.5 167.0625 L 262.5 167.0625 L 262.5 208.3125 L 112.5 208.3125 Z M 112.5 167.0625 " clip-rule="nonzero"/></clipPath></defs><g clip-path="url(#793ac58b35)"><path fill="#a63469" d="M 133 167.0625 C 126.753906 167.0625 121.203125 169.671875 117.683594 173.667969 C 114.164062 177.664062 112.5625 182.722656 112.5625 187.6875 C 112.5625 192.652344 114.164062 197.710938 117.683594 201.707031 C 121.203125 205.703125 126.753906 208.3125 133 208.3125 C 139.246094 208.3125 144.796875 205.703125 148.316406 201.707031 C 151.835938 197.710938 153.4375 192.652344 153.4375 187.6875 C 153.4375 182.722656 151.835938 177.664062 148.316406 173.667969 C 144.796875 169.671875 139.246094 167.0625 133 167.0625 Z M 187.5 167.0625 C 181.253906 167.0625 175.703125 169.671875 172.183594 173.667969 C 168.664062 177.664062 167.0625 182.722656 167.0625 187.6875 C 167.0625 192.652344 168.664062 197.710938 172.183594 201.707031 C 175.703125 205.703125 181.253906 208.3125 187.5 208.3125 C 193.746094 208.3125 199.296875 205.703125 202.816406 201.707031 C 206.335938 197.710938 207.9375 192.652344 207.9375 187.6875 C 207.9375 182.722656 206.335938 177.664062 202.816406 173.667969 C 199.296875 169.671875 193.746094 167.0625 187.5 167.0625 Z M 242 167.0625 C 235.753906 167.0625 230.203125 169.671875 226.683594 173.667969 C 223.164062 177.664062 221.5625 182.722656 221.5625 187.6875 C 221.5625 192.652344 223.164062 197.710938 226.683594 201.707031 C 230.203125 205.703125 235.753906 208.3125 242 208.3125 C 248.246094 208.3125 253.796875 205.703125 257.316406 201.707031 C 260.835938 197.710938 262.4375 192.652344 262.4375 187.6875 C 262.4375 182.722656 260.835938 177.664062 257.316406 173.667969 C 253.796875 169.671875 248.246094 167.0625 242 167.0625 Z M 242 167.0625 " fill-opacity="1" fill-rule="nonzero"/></g></svg>